<svg id="Layer_1" data-name="Layer 1" xmlns="http://www.w3.org/2000/svg" viewBox="0 0 702.74 317.32"><defs><style>.cls-1{fill:#fff;}</style></defs><path class="cls-1" d="M204.85,115.85c-16.66,0-38.23,10.08-44.77,17.86-7.22-8.12-28.08-17.87-44.74-17.86A65.09,65.09,0,0,0,50.22,181v77.21a6,6,0,0,0,6,6h0A34.73,34.73,0,0,0,91,229.44V181.52c0-13.66,11.18-25.18,24.84-24.93a24.38,24.38,0,0,1,23.94,24.33v77.25a6,6,0,0,0,6,6h0a34.73,34.73,0,0,0,34.73-34.73V180.92a24.37,24.37,0,0,1,24.87-24.34c13.37.25,23.91,11.56,23.91,24.94v76.65a6,6,0,0,0,6,6h0A34.73,34.73,0,0,0,270,229.44V181A65.19,65.19,0,0,0,204.85,115.85Z"/><path class="cls-1" d="M494.19,181.12V229.6a34.73,34.73,0,0,1-34.73,34.73h0a6,6,0,0,1-6-6V181.67c0-13.68-11.19-25.2-24.86-24.94a24.39,24.39,0,0,0-23.92,24.39v48.47A34.73,34.73,0,0,1,370,264.32h0a6,6,0,0,1-6-6V181.11a65.12,65.12,0,0,1,130.24,0Z"/><path class="cls-1" d="M582.34,116.5H571.85a3,3,0,0,1-3-3V78.87a6,6,0,0,0-6-6H534.11a6,6,0,0,0-6,6V113.5a3,3,0,0,1-3,3H514.62a6,6,0,0,0-6,6v28.73a6,6,0,0,0,6,6h10.49a3,3,0,0,1,3,3v98.59a6,6,0,0,0,6,6h0a34.73,34.73,0,0,0,34.74-34.73V160.23a3,3,0,0,1,3-3h10.49a6,6,0,0,0,6-6V122.5A6,6,0,0,0,582.34,116.5Z"/><path class="cls-1" d="M302.6,116.79h28.73a6,6,0,0,1,6,6V230.09a34.73,34.73,0,0,1-34.73,34.73h0a6,6,0,0,1-6-6v-136A6,6,0,0,1,302.6,116.79Z"/><path class="cls-1" d="M617.79,116.79h28.73a6,6,0,0,1,6,6V230.09a34.73,34.73,0,0,1-34.73,34.73h0a6,6,0,0,1-6-6v-136a6,6,0,0,1,6-6Z"/><path class="cls-1" d="M317,52.5h15.37a5,5,0,0,1,5,5V72.87A20.37,20.37,0,0,1,317,93.23h0A20.37,20.37,0,0,1,296.6,72.87v0A20.37,20.37,0,0,1,317,52.5Z"/><path class="cls-1" d="M632.15,52.5h15.37a5,5,0,0,1,5,5V72.87a20.37,20.37,0,0,1-20.37,20.37h0a20.37,20.37,0,0,1-20.37-20.37v0A20.37,20.37,0,0,1,632.15,52.5Z"/></svg>