<svg id="Layer_1" data-name="Layer 1" xmlns="http://www.w3.org/2000/svg" viewBox="0 0 723.35 299"><defs><style>.cls-1{fill:#1b2845;}</style></defs><path class="cls-1" d="M215.15,106.69c-16.66,0-38.23,10.08-44.77,17.86-7.21-8.12-28.08-17.87-44.74-17.86A65.09,65.09,0,0,0,60.52,171.8V249a6,6,0,0,0,6,6h0a34.72,34.72,0,0,0,34.73-34.73V172.36c0-13.66,11.18-25.18,24.84-24.93A24.38,24.38,0,0,1,150,171.76V249a6,6,0,0,0,6,6h0a34.72,34.72,0,0,0,34.73-34.73V171.76a24.37,24.37,0,0,1,24.87-24.34c13.38.25,23.91,11.56,23.91,24.94V249a6,6,0,0,0,6,6h0a34.72,34.72,0,0,0,34.73-34.73V171.81A65.19,65.19,0,0,0,215.15,106.69Z"/><path class="cls-1" d="M504.49,172v48.48a34.72,34.72,0,0,1-34.73,34.73h0a6,6,0,0,1-6-6V172.51c0-13.68-11.19-25.2-24.86-24.94A24.39,24.39,0,0,0,415,172v48.47a34.72,34.72,0,0,1-34.72,34.73h0a6,6,0,0,1-6-6V172a65.12,65.12,0,1,1,130.23,0Z"/><path class="cls-1" d="M592.65,107.34h-10.5a3,3,0,0,1-3-3V69.71a6,6,0,0,0-6-6H544.42a6,6,0,0,0-6,6v34.63a3,3,0,0,1-3,3h-10.5a6,6,0,0,0-6,6v28.73a6,6,0,0,0,6,6h10.5a3,3,0,0,1,3,3v98.59a6,6,0,0,0,6,6h0a34.73,34.73,0,0,0,34.73-34.73V151.07a3,3,0,0,1,3-3h10.5a6,6,0,0,0,6-6V113.34A6,6,0,0,0,592.65,107.34Z"/><path class="cls-1" d="M312.9,107.63h28.73a6,6,0,0,1,6,6V220.93a34.73,34.73,0,0,1-34.73,34.73h0a6,6,0,0,1-6-6v-136a6,6,0,0,1,6-6Z"/><path class="cls-1" d="M628.09,107.63h28.73a6,6,0,0,1,6,6V220.93a34.73,34.73,0,0,1-34.73,34.73h0a6,6,0,0,1-6-6v-136a6,6,0,0,1,6-6Z"/><path class="cls-1" d="M327.26,43.34h15.37a5,5,0,0,1,5,5V63.71a20.37,20.37,0,0,1-20.37,20.37h0A20.37,20.37,0,0,1,306.9,63.71v0a20.37,20.37,0,0,1,20.37-20.37Z"/><path class="cls-1" d="M642.46,43.34h15.37a5,5,0,0,1,5,5V63.71a20.37,20.37,0,0,1-20.37,20.37h0a20.37,20.37,0,0,1-20.37-20.37v0a20.37,20.37,0,0,1,20.37-20.37Z"/></svg>