<?xml version="1.0" standalone="no"?>
<!DOCTYPE svg PUBLIC "-//W3C//DTD SVG 20010904//EN"
 "http://www.w3.org/TR/2001/REC-SVG-20010904/DTD/svg10.dtd">
<svg version="1.0" xmlns="http://www.w3.org/2000/svg"
 width="100.000000pt" height="100.000000pt" viewBox="0 0 100.000000 100.000000"
 preserveAspectRatio="xMidYMid meet">

<g transform="translate(0.000000,100.000000) scale(0.100000,-0.100000)"
fill="#1B2845" stroke="none">
<path d="M395 731 c-52 -23 -103 -74 -126 -126 -25 -53 -25 -157 0 -210 21
-46 88 -111 137 -131 82 -34 213 -5 276 62 56 60 68 105 68 260 0 96 -4 144
-12 152 -8 8 -57 12 -158 12 -119 0 -152 -4 -185 -19z m205 -191 c0 -71 -15
-107 -51 -126 -73 -37 -149 7 -149 86 0 33 6 48 29 71 27 27 35 29 100 29 l71
0 0 -60z"/>
</g>
</svg>
