<svg id="svg" xmlns="http://www.w3.org/2000/svg" xmlns:xlink="http://www.w3.org/1999/xlink" width="400" height="166.4" viewBox="0, 0, 400,166.4"><g id="svgg"><path id="path0" d="M172.045 27.150 C 167.581 32.083,168.199 39.760,173.423 44.253 C 183.103 52.580,194.675 44.399,193.316 30.190 C 192.649 23.219,177.555 21.062,172.045 27.150 M347.316 28.216 C 338.299 39.679,352.186 53.807,363.625 44.809 C 367.432 41.815,368.000 40.239,368.000 32.684 L 368.000 24.000 359.316 24.000 C 351.841 24.000,350.171 24.587,347.316 28.216 M298.667 36.267 C 298.080 36.853,297.600 42.208,297.600 48.165 L 297.600 58.997 292.400 59.499 L 287.200 60.000 287.200 71.200 L 287.200 82.400 292.400 82.901 L 297.600 83.403 297.600 112.901 L 297.600 142.400 302.479 142.400 C 317.689 142.400,321.600 134.909,321.600 105.781 L 321.600 83.403 326.800 82.901 L 332.000 82.400 332.000 71.200 L 332.000 60.000 326.800 59.499 L 321.600 58.997 321.600 47.099 L 321.600 35.200 310.667 35.200 C 304.653 35.200,299.253 35.680,298.667 36.267 M49.599 64.400 C 34.454 73.494,32.000 80.492,32.000 114.583 L 32.000 142.400 37.384 142.400 C 50.544 142.400,56.000 132.554,56.000 108.807 C 56.000 88.724,58.708 83.200,68.550 83.200 C 79.417 83.200,80.711 86.399,81.600 115.454 L 82.400 141.600 87.681 142.107 C 92.041 142.526,94.064 141.513,99.281 136.296 L 105.600 129.976 105.600 110.516 C 105.600 88.563,108.064 83.200,118.150 83.200 C 129.017 83.200,130.311 86.399,131.200 115.454 L 132.000 141.600 136.294 142.096 C 161.988 145.064,163.881 80.545,138.560 64.890 C 127.406 57.994,113.582 57.268,101.934 62.966 L 93.474 67.106 85.666 63.153 C 73.801 57.146,60.938 57.591,49.599 64.400 M168.997 61.665 C 167.712 65.012,167.689 136.527,168.971 139.869 C 170.532 143.936,179.788 143.045,185.448 138.282 C 192.808 132.089,193.821 126.003,193.283 91.200 L 192.800 60.000 181.397 59.534 C 172.068 59.153,169.812 59.540,168.997 61.665 M228.000 62.120 C 210.094 70.575,206.480 79.402,206.435 114.800 L 206.400 142.400 211.353 142.400 C 225.336 142.400,230.400 133.489,230.400 108.885 C 230.400 88.717,233.096 83.200,242.950 83.200 C 253.817 83.200,255.111 86.399,256.000 115.454 C 256.892 144.596,257.371 145.534,268.938 140.743 C 281.264 135.637,285.338 96.983,275.529 78.207 C 266.974 61.831,244.630 54.268,228.000 62.120 M344.749 61.157 C 344.305 62.314,344.135 80.887,344.371 102.430 L 344.800 141.600 349.094 142.096 C 364.944 143.927,368.160 135.586,367.632 94.018 L 367.200 60.000 356.378 59.526 C 348.560 59.184,345.332 59.637,344.749 61.157 " stroke="none" fill="#93e9be" fill-rule="evenodd"></path></g></svg>