<svg width="24" height="24" viewBox="0 0 24 24" fill="none" xmlns="http://www.w3.org/2000/svg">
<path d="M16.2929 5.70709C16.6834 5.31658 17.3166 5.31658 17.7071 5.70709V5.70709C18.0976 6.09762 18.0976 6.73079 17.7071 7.12131L13.121 11.707L17.7071 16.2929C18.0976 16.6834 18.0976 17.3166 17.7071 17.7071V17.7071C17.3166 18.0976 16.6834 18.0976 16.2929 17.7071L11.707 13.121L7.12131 17.7071C6.73079 18.0976 6.09762 18.0976 5.70709 17.7071V17.7071C5.31658 17.3166 5.31658 16.6834 5.70709 16.2929L10.293 11.707L5.70712 7.12131C5.31659 6.73079 5.31658 6.09763 5.70711 5.70711V5.70711C6.09763 5.31658 6.73079 5.31659 7.12131 5.70712L11.707 10.293L16.2929 5.70709Z" fill="#F2F2F7"/>
</svg>
