<svg width="24" height="24" viewBox="0 0 24 24" fill="none" xmlns="http://www.w3.org/2000/svg">
<path d="M17.6556 6.34442C14.53 3.21878 9.47051 3.21828 6.34443 6.34442C3.21876 9.47005 3.21829 14.5295 6.34443 17.6556C9.47001 20.7812 14.5295 20.7817 17.6556 17.6556C20.7813 14.53 20.7817 9.47052 17.6556 6.34442ZM17.3213 16.5155C16.9476 16.1813 16.5479 15.8856 16.1265 15.6307C16.405 14.6687 16.57 13.6101 16.609 12.5097H18.9605C18.8542 13.993 18.2843 15.3844 17.3213 16.5155ZM5.03949 12.5097H7.39098C7.42998 13.6101 7.59497 14.6687 7.87346 15.6307C7.45212 15.8856 7.05238 16.1813 6.67869 16.5155C5.71572 15.3844 5.14584 13.993 5.03949 12.5097V12.5097ZM6.67872 7.48455C7.05241 7.81871 7.45215 8.11444 7.87349 8.3693C7.595 9.33129 7.43001 10.3899 7.39101 11.4903H5.03949C5.14584 10.0071 5.71572 8.61569 6.67872 7.48455V7.48455ZM11.4903 8.47465C10.6591 8.4152 9.85757 8.21046 9.11451 7.8727C9.54666 6.75989 10.3433 5.4252 11.4903 5.09444V8.47465ZM11.4903 9.49594V11.4903H8.41081C8.44609 10.5595 8.57798 9.66561 8.79734 8.84775C9.64174 9.21689 10.5499 9.43733 11.4903 9.49594V9.49594ZM11.4903 12.5097V14.5041C10.5499 14.5627 9.64174 14.7832 8.79734 15.1523C8.57798 14.3344 8.44609 13.4406 8.41081 12.5097H11.4903ZM11.4903 15.5254V18.9056C10.3434 18.5748 9.54672 17.2403 9.11451 16.1273C9.85757 15.7896 10.6591 15.5848 11.4903 15.5254ZM12.5097 15.5254C13.3409 15.5848 14.1424 15.7896 14.8855 16.1273C14.4533 17.2402 13.6567 18.5748 12.5097 18.9056V15.5254ZM12.5097 14.5041V12.5097H15.5892C15.5539 13.4406 15.422 14.3344 15.2027 15.1523C14.3583 14.7832 13.4501 14.5627 12.5097 14.5041ZM12.5097 11.4903V9.49594C13.4501 9.43733 14.3583 9.21689 15.2027 8.84775C15.422 9.66561 15.5539 10.5595 15.5892 11.4903H12.5097ZM12.5097 8.47465V5.09447C13.6567 5.42523 14.4533 6.75992 14.8855 7.87273C14.1424 8.21046 13.3409 8.4152 12.5097 8.47465ZM14.7991 5.60333C15.4515 5.88904 16.0602 6.27644 16.6058 6.75711C16.3461 6.98611 16.0721 7.19375 15.7859 7.37945C15.5318 6.75021 15.2071 6.13871 14.7991 5.60333V5.60333ZM8.21409 7.37945C7.92792 7.19375 7.65389 6.98611 7.39414 6.75711C7.93978 6.27644 8.54848 5.88904 9.20091 5.60333C8.79287 6.13877 8.46823 6.75027 8.21409 7.37945V7.37945ZM8.21412 16.6206C8.46823 17.2498 8.79293 17.8613 9.20094 18.3967C8.54851 18.111 7.93982 17.7236 7.39417 17.2429C7.65389 17.0139 7.92795 16.8063 8.21412 16.6206V16.6206ZM15.7859 16.6206C16.0721 16.8063 16.3461 17.0139 16.6058 17.2429C16.0602 17.7236 15.4515 18.111 14.7991 18.3967C15.2071 17.8614 15.5318 17.2498 15.7859 16.6206ZM16.609 11.4903C16.57 10.3899 16.405 9.33129 16.1265 8.36933C16.5479 8.11447 16.9476 7.81874 17.3213 7.48458C18.2843 8.61569 18.8542 10.0071 18.9605 11.4903H16.609Z" fill="#AEAEB2"/>
</svg>
