<svg width="24" height="24" viewBox="0 0 24 24" fill="none" xmlns="http://www.w3.org/2000/svg">
<path d="M18.454 3.80388H11.8907C10.8258 3.80388 9.77132 4.01619 8.78749 4.42869C7.80366 4.84119 6.90975 5.4458 6.1568 6.208C5.40385 6.97019 4.8066 7.87504 4.39917 8.87087C3.99174 9.8667 3.7821 10.934 3.78223 12.0119V12.0119C3.7821 13.0897 3.99174 14.157 4.39917 15.1528C4.8066 16.1487 5.40385 17.0535 6.1568 17.8157C6.90975 18.5779 7.80366 19.1825 8.78749 19.595C9.77132 20.0075 10.8258 20.2198 11.8907 20.2198V20.2198C14.0414 20.2198 16.1041 19.3551 17.6249 17.8158C19.1457 16.2765 20.0001 14.1887 20.0001 12.0119V5.36879C20.0001 4.95375 19.8372 4.55571 19.5473 4.26223C19.2573 3.96875 18.8641 3.80388 18.454 3.80388ZM15.1685 12.0119C15.1685 12.668 14.9762 13.3094 14.6161 13.855C14.2559 14.4006 13.744 14.8258 13.145 15.0769C12.5461 15.328 11.8871 15.3937 11.2512 15.2657C10.6154 15.1377 10.0314 14.8217 9.57294 14.3578C9.11454 13.8938 8.80236 13.3026 8.67588 12.6591C8.54941 12.0155 8.61432 11.3485 8.86241 10.7423C9.1105 10.136 9.53062 9.6179 10.0696 9.25336C10.6087 8.88881 11.2424 8.69424 11.8907 8.69424H15.1685V12.0119Z" fill="#8E8E93"/>
</svg>
