<svg width="24" height="24" viewBox="0 0 24 24" fill="none" xmlns="http://www.w3.org/2000/svg">
<path d="M11.1111 4C15.0385 4 18.2222 7.18375 18.2222 11.1111C18.2222 12.7584 17.6621 14.2749 16.7219 15.4805L19.3795 18.1384C19.7222 18.4811 19.7222 19.0368 19.3795 19.3795V19.3795C19.0368 19.7222 18.4811 19.7222 18.1384 19.3795L15.4805 16.7219C14.2749 17.6621 12.7584 18.2222 11.1111 18.2222C7.18375 18.2222 4 15.0385 4 11.1111C4 7.18375 7.18375 4 11.1111 4ZM11.1111 5.77778C8.16559 5.77778 5.77778 8.16559 5.77778 11.1111C5.77778 14.0566 8.16559 16.4444 11.1111 16.4444C14.0566 16.4444 16.4444 14.0566 16.4444 11.1111C16.4444 8.16559 14.0566 5.77778 11.1111 5.77778Z" fill="#8E8E93"/>
</svg>
